<svg width="20" height="21" viewBox="0 0 20 21" fill="none" xmlns="http://www.w3.org/2000/svg">
<path fill-rule="evenodd" clip-rule="evenodd" d="M0.5192 6.32274C0 7.27128 0 8.41549 0 10.7039V12.225C0 16.1258 0 18.0763 1.17157 19.2881C2.34315 20.5 4.22876 20.5 8 20.5H12C15.7712 20.5 17.6569 20.5 18.8284 19.2881C20 18.0763 20 16.1258 20 12.225V10.7039C20 8.41549 20 7.27128 19.4808 6.32274C18.9616 5.37421 18.0131 4.78551 16.116 3.60812L14.116 2.36687C12.1106 1.12229 11.1079 0.5 10 0.5C8.89206 0.5 7.88939 1.12229 5.88403 2.36687L3.88403 3.60813C1.98695 4.78551 1.0384 5.37421 0.5192 6.32274ZM9.25 16.5C9.25 16.9142 9.58579 17.25 10 17.25C10.4142 17.25 10.75 16.9142 10.75 16.5V13.5C10.75 13.0858 10.4142 12.75 10 12.75C9.58579 12.75 9.25 13.0858 9.25 13.5V16.5Z" fill="#202020"/>
</svg>
