<svg width="40" height="40" viewBox="0 0 40 40" fill="none" xmlns="http://www.w3.org/2000/svg">
<path d="M29.6 25.6C29.6 30.464 25.664 34.4 20.8 34.4C15.936 34.4 12 30.464 12 25.6C12 20.736 15.936 16.8 20.8 16.8C21.072 16.8 21.344 16.816 21.6 16.848V22.4C21.6 23.28 22.32 24 23.2 24H29.456C29.552 24.512 29.6 25.056 29.6 25.6Z" fill="url(#paint0_linear_236_3157)" fill-opacity="0.24"/>
<path d="M31.2032 26.5312C31.0481 25.4903 30.5231 24.5401 29.7244 23.8548C28.9257 23.1695 27.9068 22.795 26.8544 22.8H20C19.8939 22.8 19.7921 22.7578 19.7171 22.6828C19.6421 22.6078 19.6 22.5061 19.6 22.4V20.4H26.4C26.7182 20.4 27.0235 20.2736 27.2485 20.0485C27.4735 19.8235 27.6 19.5182 27.6 19.2C27.6 18.8817 27.4735 18.5765 27.2485 18.3515C27.0235 18.1264 26.7182 18 26.4 18H19.6V14.6464C20.7366 14.3768 21.7494 13.7323 22.4751 12.8168C23.2007 11.9013 23.597 10.7682 23.6 9.59998C23.6 6.73278 21.2672 4.39998 18.4 4.39998C15.5328 4.39998 13.2 6.73278 13.2 9.59998C13.203 10.7682 13.5992 11.9013 14.3249 12.8168C15.0505 13.7323 16.0633 14.3768 17.2 14.6464V15.6208C11.872 15.8336 7.59998 20.2208 7.59998 25.6C7.59998 31.1136 12.0864 35.6 17.6 35.6C23.1136 35.6 27.6 31.1136 27.6 25.6C27.6 25.512 27.5872 25.4288 27.584 25.3408C28.232 25.5936 28.72 26.1696 28.8304 26.8976L30.0128 34.584C30.0688 34.8915 30.2425 35.165 30.4971 35.3464C30.7516 35.5278 31.0669 35.6026 31.3758 35.5551C31.6848 35.5076 31.963 35.3414 32.1512 35.0919C32.3395 34.8424 32.423 34.5293 32.384 34.2192L31.2016 26.5328L31.2032 26.5312ZM15.6 9.59998C15.6 8.05598 16.856 6.79998 18.4 6.79998C19.944 6.79998 21.2 8.05598 21.2 9.59998C21.2 11.144 19.944 12.4 18.4 12.4C16.856 12.4 15.6 11.144 15.6 9.59998ZM17.6 33.2C15.5851 33.1974 13.6535 32.3959 12.2288 30.9712C10.804 29.5465 10.0025 27.6148 9.99998 25.6C9.99998 21.5456 13.1984 18.2528 17.2 18.04V22.4C17.2 23.944 18.456 25.2 20 25.2H25.176C25.1856 25.3328 25.2 25.464 25.2 25.6C25.1974 27.6148 24.3959 29.5465 22.9712 30.9712C21.5465 32.3959 19.6148 33.1974 17.6 33.2Z" fill="url(#paint1_linear_236_3157)"/>
<defs>
<linearGradient id="paint0_linear_236_3157" x1="10.5759" y1="13.5407" x2="34.9989" y2="28.7101" gradientUnits="userSpaceOnUse">
<stop stop-color="#86B560"/>
<stop offset="1" stop-color="#336F4A"/>
</linearGradient>
<linearGradient id="paint1_linear_236_3157" x1="5.59387" y1="-1.3778" x2="43.932" y2="17.5449" gradientUnits="userSpaceOnUse">
<stop stop-color="#86B560"/>
<stop offset="1" stop-color="#336F4A"/>
</linearGradient>
</defs>
</svg>
